HIERARCHY
ROOT mixamorig:Hips
{
	OFFSET 0.000000 201.639420 0.000000
	CHANNELS 6 Xposition Yposition Zposition Xrotation Yrotation Zrotation
	JOINT mixamorig:Spine
	{
		OFFSET 0.006200 19.524994 -2.481800
		CHANNELS 3 Xrotation Yrotation Zrotation
		JOINT mixamorig:Spine1
		{
			OFFSET -0.000900 22.835007 -2.825400
			CHANNELS 3 Xrotation Yrotation Zrotation
			JOINT mixamorig:Spine2
			{
				OFFSET -0.020600 26.552490 -3.193300
				CHANNELS 3 Xrotation Yrotation Zrotation
				JOINT mixamorig:Neck
				{
					OFFSET -0.060000 30.701813 1.352200
					CHANNELS 3 Xrotation Yrotation Zrotation
					JOINT mixamorig:Head
					{
						OFFSET -0.087200 22.547607 3.670900
						CHANNELS 3 Xrotation Yrotation Zrotation
						JOINT mixamorig:HeadTop_End
						{
							OFFSET -0.830600 40.355194 7.893500
							CHANNELS 3 Xrotation Yrotation Zrotation
							End Site
							{
								OFFSET 0.000000 30.592346 0.000000
							}
						}
						JOINT mixamorig:RightEye
						{
							OFFSET -6.302100 18.118591 16.197100
							CHANNELS 3 Xrotation Yrotation Zrotation
							End Site
							{
								OFFSET 0.000000 30.592346 0.000000
							}
						}
						JOINT mixamorig:LeftEye
						{
							OFFSET 6.741500 18.382690 16.401899
							CHANNELS 3 Xrotation Yrotation Zrotation
							End Site
							{
								OFFSET 0.000000 30.592346 0.000000
							}
						}
					}
				}
				JOINT mixamorig:LeftShoulder
				{
					OFFSET 11.924900 18.230499 1.425400
					CHANNELS 3 Xrotation Yrotation Zrotation
					JOINT mixamorig:LeftArm
					{
						OFFSET 25.435989 -0.697632 -5.229300
						CHANNELS 3 Xrotation Yrotation Zrotation
						JOINT mixamorig:LeftForeArm
						{
							OFFSET 54.684776 0.000000 0.000000
							CHANNELS 3 Xrotation Yrotation Zrotation
							JOINT mixamorig:LeftHand
							{
								OFFSET 55.098175 0.000000 0.000000
								CHANNELS 3 Xrotation Yrotation Zrotation
								JOINT mixamorig:LeftHandMiddle1
								{
									OFFSET 23.369751 0.000000 0.000000
									CHANNELS 3 Xrotation Yrotation Zrotation
									JOINT mixamorig:LeftHandMiddle2
									{
										OFFSET 6.378677 0.000000 0.000000
										CHANNELS 3 Xrotation Yrotation Zrotation
										JOINT mixamorig:LeftHandMiddle3
										{
											OFFSET 6.148331 0.000000 0.000000
											CHANNELS 3 Xrotation Yrotation Zrotation
											JOINT mixamorig:LeftHandMiddle4
											{
												OFFSET 6.582504 0.000000 0.000000
												CHANNELS 3 Xrotation Yrotation Zrotation
												End Site
												{
													OFFSET -1.168900 6.395691 1.028606
												}
											}
										}
									}
								}
								JOINT mixamorig:LeftHandThumb1
								{
									OFFSET 7.235672 -3.848206 5.434273
									CHANNELS 3 Xrotation Yrotation Zrotation
									JOINT mixamorig:LeftHandThumb2
									{
										OFFSET 6.568451 -3.792297 3.792300
										CHANNELS 3 Xrotation Yrotation Zrotation
										JOINT mixamorig:LeftHandThumb3
										{
											OFFSET 6.063080 -3.500519 3.500518
											CHANNELS 3 Xrotation Yrotation Zrotation
											JOINT mixamorig:LeftHandThumb4
											{
												OFFSET 4.793182 -2.767334 2.767349
												CHANNELS 3 Xrotation Yrotation Zrotation
												End Site
												{
													OFFSET 0.101639 6.054260 1.275483
												}
											}
										}
									}
								}
								JOINT mixamorig:LeftHandIndex1
								{
									OFFSET 23.101074 -0.309540 4.992809
									CHANNELS 3 Xrotation Yrotation Zrotation
									JOINT mixamorig:LeftHandIndex2
									{
										OFFSET 6.226883 0.000000 0.000000
										CHANNELS 3 Xrotation Yrotation Zrotation
										JOINT mixamorig:LeftHandIndex3
										{
											OFFSET 6.094330 0.000000 0.000000
											CHANNELS 3 Xrotation Yrotation Zrotation
											JOINT mixamorig:LeftHandIndex4
											{
												OFFSET 5.482605 0.000000 0.000000
												CHANNELS 3 Xrotation Yrotation Zrotation
												End Site
												{
													OFFSET -1.427902 5.233032 0.797164
												}
											}
										}
									}
								}
								JOINT mixamorig:LeftHandRing1
								{
									OFFSET 22.299240 0.021149 -3.964172
									CHANNELS 3 Xrotation Yrotation Zrotation
									JOINT mixamorig:LeftHandRing2
									{
										OFFSET 6.321869 0.000000 0.000000
										CHANNELS 3 Xrotation Yrotation Zrotation
										JOINT mixamorig:LeftHandRing3
										{
											OFFSET 5.899796 0.000000 0.000000
											CHANNELS 3 Xrotation Yrotation Zrotation
											JOINT mixamorig:LeftHandRing4
											{
												OFFSET 6.517899 0.000000 0.000000
												CHANNELS 3 Xrotation Yrotation Zrotation
												End Site
												{
													OFFSET -1.637299 6.232208 0.980890
												}
											}
										}
									}
								}
								JOINT mixamorig:LeftHandPinky1
								{
									OFFSET 20.463791 -0.302338 -8.562233
									CHANNELS 3 Xrotation Yrotation Zrotation
									JOINT mixamorig:LeftHandPinky2
									{
										OFFSET 6.908646 0.000000 0.000000
										CHANNELS 3 Xrotation Yrotation Zrotation
										JOINT mixamorig:LeftHandPinky3
										{
											OFFSET 4.622849 0.000000 0.000000
											CHANNELS 3 Xrotation Yrotation Zrotation
											JOINT mixamorig:LeftHandPinky4
											{
												OFFSET 5.216080 0.000000 0.000000
												CHANNELS 3 Xrotation Yrotation Zrotation
												End Site
												{
													OFFSET -0.606308 5.116241 0.814926
												}
											}
										}
									}
								}
							}
						}
					}
				}
				JOINT mixamorig:RightShoulder
				{
					OFFSET -12.001300 18.284088 1.348900
					CHANNELS 3 Xrotation Yrotation Zrotation
					JOINT mixamorig:RightArm
					{
						OFFSET -25.308500 -0.751312 -5.164599
						CHANNELS 3 Xrotation Yrotation Zrotation
						JOINT mixamorig:RightForeArm
						{
							OFFSET -54.684429 0.000000 0.000000
							CHANNELS 3 Xrotation Yrotation Zrotation
							JOINT mixamorig:RightHand
							{
								OFFSET -55.150291 0.000000 0.000000
								CHANNELS 3 Xrotation Yrotation Zrotation
								JOINT mixamorig:RightHandMiddle1
								{
									OFFSET -23.317566 0.000000 0.000000
									CHANNELS 3 Xrotation Yrotation Zrotation
									JOINT mixamorig:RightHandMiddle2
									{
										OFFSET -6.378403 0.000000 0.000000
										CHANNELS 3 Xrotation Yrotation Zrotation
										JOINT mixamorig:RightHandMiddle3
										{
											OFFSET -6.148193 0.000000 0.000000
											CHANNELS 3 Xrotation Yrotation Zrotation
											JOINT mixamorig:RightHandMiddle4
											{
												OFFSET -6.583389 0.000000 0.000000
												CHANNELS 3 Xrotation Yrotation Zrotation
												End Site
												{
													OFFSET 1.171692 6.395905 1.029786
												}
											}
										}
									}
								}
								JOINT mixamorig:RightHandThumb1
								{
									OFFSET -7.190521 -3.860474 5.435846
									CHANNELS 3 Xrotation Yrotation Zrotation
									JOINT mixamorig:RightHandThumb2
									{
										OFFSET -6.567429 -3.791718 3.791708
										CHANNELS 3 Xrotation Yrotation Zrotation
										JOINT mixamorig:RightHandThumb3
										{
											OFFSET -6.062469 -3.500153 3.500166
											CHANNELS 3 Xrotation Yrotation Zrotation
											JOINT mixamorig:RightHandThumb4
											{
												OFFSET -4.792618 -2.767029 2.767022
												CHANNELS 3 Xrotation Yrotation Zrotation
												End Site
												{
													OFFSET -0.100327 6.053253 1.276754
												}
											}
										}
									}
								}
								JOINT mixamorig:RightHandIndex1
								{
									OFFSET -23.048981 -0.310791 4.992554
									CHANNELS 3 Xrotation Yrotation Zrotation
									JOINT mixamorig:RightHandIndex2
									{
										OFFSET -6.227539 0.000000 0.000000
										CHANNELS 3 Xrotation Yrotation Zrotation
										JOINT mixamorig:RightHandIndex3
										{
											OFFSET -6.095047 0.000000 0.000000
											CHANNELS 3 Xrotation Yrotation Zrotation
											JOINT mixamorig:RightHandIndex4
											{
												OFFSET -5.484772 0.000000 0.000000
												CHANNELS 3 Xrotation Yrotation Zrotation
												End Site
												{
													OFFSET 1.420593 5.237305 0.797056
												}
											}
										}
									}
								}
								JOINT mixamorig:RightHandRing1
								{
									OFFSET -22.246323 0.020569 -3.963762
									CHANNELS 3 Xrotation Yrotation Zrotation
									JOINT mixamorig:RightHandRing2
									{
										OFFSET -6.322128 0.000000 0.000000
										CHANNELS 3 Xrotation Yrotation Zrotation
										JOINT mixamorig:RightHandRing3
										{
											OFFSET -5.900024 0.000000 0.000000
											CHANNELS 3 Xrotation Yrotation Zrotation
											JOINT mixamorig:RightHandRing4
											{
												OFFSET -6.518356 0.000000 0.000000
												CHANNELS 3 Xrotation Yrotation Zrotation
												End Site
												{
													OFFSET 1.636398 6.232697 0.982186
												}
											}
										}
									}
								}
								JOINT mixamorig:RightHandPinky1
								{
									OFFSET -20.411011 -0.303314 -8.561701
									CHANNELS 3 Xrotation Yrotation Zrotation
									JOINT mixamorig:RightHandPinky2
									{
										OFFSET -6.907349 0.000000 0.000000
										CHANNELS 3 Xrotation Yrotation Zrotation
										JOINT mixamorig:RightHandPinky3
										{
											OFFSET -4.623840 0.000000 0.000000
											CHANNELS 3 Xrotation Yrotation Zrotation
											JOINT mixamorig:RightHandPinky4
											{
												OFFSET -5.218353 0.000000 0.000000
												CHANNELS 3 Xrotation Yrotation Zrotation
												End Site
												{
													OFFSET 0.602097 5.118835 0.816273
												}
											}
										}
									}
								}
							}
						}
					}
				}
			}
		}
	}
	JOINT mixamorig:LeftUpLeg
	{
		OFFSET 18.168400 -13.561905 -0.039000
		CHANNELS 3 Xrotation Yrotation Zrotation
		JOINT mixamorig:LeftLeg
		{
			OFFSET 0.577358 -80.825211 -3.695000
			CHANNELS 3 Xrotation Yrotation Zrotation
			JOINT mixamorig:LeftFoot
			{
				OFFSET -0.577356 -83.370262 -6.520700
				CHANNELS 3 Xrotation Yrotation Zrotation
				JOINT mixamorig:LeftToeBase
				{
					OFFSET 0.750401 -20.798306 25.135401
					CHANNELS 3 Xrotation Yrotation Zrotation
					JOINT mixamorig:LeftToe_End
					{
						OFFSET -0.000500 0.001200 19.917799
						CHANNELS 3 Xrotation Yrotation Zrotation
						End Site
						{
							OFFSET 0.000000 19.917805 0.000000
						}
					}
				}
			}
		}
	}
	JOINT mixamorig:RightUpLeg
	{
		OFFSET -18.162500 -13.585098 -0.041000
		CHANNELS 3 Xrotation Yrotation Zrotation
		JOINT mixamorig:RightLeg
		{
			OFFSET -0.595024 -80.945297 -3.631900
			CHANNELS 3 Xrotation Yrotation Zrotation
			JOINT mixamorig:RightFoot
			{
				OFFSET 0.595024 -83.218193 -6.561200
				CHANNELS 3 Xrotation Yrotation Zrotation
				JOINT mixamorig:RightToeBase
				{
					OFFSET -0.753601 -20.807106 25.115000
					CHANNELS 3 Xrotation Yrotation Zrotation
					JOINT mixamorig:RightToe_End
					{
						OFFSET 0.000299 0.001700 19.918200
						CHANNELS 3 Xrotation Yrotation Zrotation
						End Site
						{
							OFFSET 0.000000 19.918203 0.000000
						}
					}
				}
			}
		}
	}
}
MOTION
Frames: 4
Frame Time: 0.033333
53.863464 194.198975 17.748703 -16.904264 -38.979210 -9.390164 7.993559 -0.054882 -0.142521 16.411191 -0.121453 -0.747193 16.412593 -0.194199 -0.723138 0.320933 7.446890 0.775585 -7.031943 21.542253 11.708390 0.000001 0.000002 -0.000002 0.000001 0.000002 -0.000002 0.000001 0.000002 -0.000002 -37.566170 -4.824809 1.541773 -41.568128 -6.954432 -61.636775 0.000086 -65.125273 0.000085 -119.344264 1.052639 32.601780 0.405905 5.507024 -52.453162 3.387133 5.308624 -65.057456 0.282012 1.797455 -17.832384 0.000002 -0.000000 -0.000001 4.710584 9.559275 3.110491 19.473189 -1.474892 7.636919 -4.536189 -9.613095 1.492976 -0.000002 -0.000005 0.000002 -0.212990 3.933518 -36.747470 2.942839 5.079295 -60.152547 0.514024 2.401594 -24.158905 -0.000001 0.000000 0.000001 -0.074366 5.736808 -61.061420 4.055094 5.569539 -72.095317 0.582663 2.548970 -25.747996 0.000002 -0.000005 -0.000004 -6.564654 4.545252 -72.424368 3.299731 5.267266 -64.108996 0.175409 1.424260 -14.041362 -0.000002 -0.000001 0.000002 -41.181017 -8.603110 -9.949991 -46.820588 58.241044 100.951569 -0.000388 98.439377 0.000407 -52.473936 -17.218161 -29.188451 3.413077 -7.186241 51.650249 6.296811 -4.359594 110.634687 0.248721 -1.503076 18.790253 0.000001 -0.000000 -0.000000 8.377151 -4.904117 11.022011 21.620199 -18.183908 -18.379230 -0.702957 -49.821206 -32.535196 -0.000002 -0.000001 -0.000005 -0.919250 1.679966 12.434934 0.748165 -2.533541 32.899611 0.615852 -2.316438 29.773109 0.000001 0.000001 -0.000003 -3.349023 -2.600428 57.010564 5.440857 -4.590907 99.698133 1.689426 -3.590678 50.382245 0.000000 -0.000001 -0.000003 -3.996431 -3.303920 64.593843 4.058828 -4.618663 82.610510 2.315543 -4.026781 59.787221 -0.000001 -0.000001 0.000001 -22.419150 42.952546 28.537118 22.081150 0.654574 -0.665638 4.243894 1.198949 -2.564059 -0.000016 0.000008 -0.000002 -0.000000 0.000000 0.000000 2.260903 5.296769 -5.446166 31.163684 -0.437870 1.059138 -18.884805 -17.327538 4.303002 -0.020440 0.000002 -0.000003 -0.000000 0.000003 0.000000 
53.819412 194.191696 17.713505 -16.904191 -38.979200 -9.389492 7.991954 -0.055880 -0.143425 16.413045 -0.121550 -0.746531 16.413320 -0.193660 -0.723056 0.358859 7.467905 0.817829 -6.992653 21.576407 11.822901 -0.000001 -0.000001 -0.000000 -0.000001 -0.000001 -0.000000 -0.000001 -0.000001 -0.000000 -37.566116 -4.824829 1.542008 -41.614615 -6.999475 -61.670270 -0.000010 -65.026174 -0.000014 -119.359892 1.101351 32.557657 0.405905 5.507020 -52.453169 3.387130 5.308630 -65.057463 0.282013 1.797454 -17.832381 0.000001 -0.000000 -0.000000 4.710100 9.560249 3.110560 19.473189 -1.474892 7.636920 -4.536191 -9.613097 1.492975 0.000002 -0.000003 0.000000 -0.212850 3.933671 -36.747196 2.942839 5.079296 -60.152554 0.514028 2.401595 -24.158903 -0.000002 0.000001 -0.000001 -0.074364 5.736810 -61.061420 4.055069 5.569524 -72.094996 0.582665 2.548972 -25.748007 0.000000 -0.000004 0.000000 -6.565389 4.545162 -72.425038 3.299648 5.267214 -64.108087 0.175354 1.424063 -14.039370 -0.000001 -0.000002 -0.000001 -41.181048 -8.602921 -9.949840 -46.819782 58.242553 100.949165 -0.001710 98.439446 0.001683 -52.466180 -17.216899 -29.250405 3.413077 -7.186240 51.650242 6.296812 -4.359597 110.634687 0.248721 -1.503076 18.790255 0.000001 -0.000000 0.000001 8.377152 -4.904116 11.022013 21.620197 -18.183910 -18.379231 -0.702958 -49.821206 -32.535196 0.000000 0.000001 0.000003 -0.919234 1.679972 12.434715 0.748132 -2.533457 32.898545 0.615852 -2.316437 29.773109 0.000001 0.000001 -0.000003 -3.349021 -2.600428 57.010561 5.440858 -4.590910 99.698140 1.689424 -3.590677 50.382238 -0.000001 -0.000000 0.000001 -3.996431 -3.303919 64.593850 4.058825 -4.618664 82.610516 2.315543 -4.026780 59.787214 -0.000001 0.000001 -0.000002 -22.427980 42.945200 28.555453 22.070274 0.653140 -0.665550 4.264794 1.198004 -2.576993 -0.000030 0.000002 -0.000003 0.000000 0.000001 0.000000 2.245138 5.291935 -5.426331 31.192883 -0.438232 1.059275 -18.905199 -17.324847 4.282328 -0.020428 0.000002 -0.000001 0.000000 0.000002 0.000000 
53.805618 194.189346 17.702595 -16.903815 -38.978923 -9.388851 7.991227 -0.056311 -0.143788 16.413884 -0.121547 -0.746237 16.413638 -0.193427 -0.723054 0.373433 7.475989 0.834075 -6.973048 21.593471 11.880163 -0.000000 0.000002 -0.000000 -0.000000 0.000002 -0.000000 -0.000000 0.000002 -0.000000 -37.566085 -4.824867 1.542066 -41.631557 -7.015861 -61.682544 0.000138 -64.989981 0.000148 -119.365615 1.119117 32.541524 0.405904 5.507021 -52.453162 3.387135 5.308626 -65.057463 0.282010 1.797455 -17.832384 -0.000001 0.000003 -0.000003 4.709897 9.560674 3.110565 19.473189 -1.474886 7.636919 -4.536188 -9.613104 1.492975 0.000000 -0.000001 0.000001 -0.212793 3.933755 -36.747073 2.942837 5.079299 -60.152554 0.514033 2.401595 -24.158898 -0.000002 0.000000 0.000001 -0.074367 5.736810 -61.061420 4.055033 5.569512 -72.094819 0.582662 2.548973 -25.748001 -0.000001 -0.000001 -0.000001 -6.565720 4.545125 -72.425352 3.299596 5.267190 -64.107630 0.175325 1.423982 -14.038464 0.000001 0.000004 0.000001 -41.181044 -8.602851 -9.949785 -46.819499 58.243236 100.948167 0.001796 98.439391 -0.001760 -52.463503 -17.216397 -29.273074 3.413078 -7.186241 51.650246 6.296810 -4.359597 110.634687 0.248722 -1.503077 18.790255 0.000001 -0.000000 -0.000000 8.377149 -4.904117 11.022009 21.620199 -18.183908 -18.379230 -0.702954 -49.821206 -32.535200 -0.000001 0.000001 -0.000003 -0.919249 1.680013 12.434619 0.748104 -2.533460 32.898074 0.615851 -2.316437 29.773119 0.000001 0.000000 -0.000003 -3.349023 -2.600429 57.010568 5.440859 -4.590908 99.698133 1.689425 -3.590678 50.382245 -0.000001 0.000001 -0.000001 -3.996430 -3.303918 64.593843 4.058828 -4.618664 82.610510 2.315544 -4.026781 59.787221 0.000000 -0.000001 0.000001 -22.430577 42.943100 28.560706 22.066388 0.652400 -0.665496 4.271552 1.197677 -2.580961 -0.000085 0.000012 -0.000002 -0.000000 -0.000001 0.000000 2.239938 5.290633 -5.420162 31.202343 -0.438693 1.059279 -18.911783 -17.324244 4.275972 -0.020462 -0.000022 0.000005 0.000000 0.000000 0.000000 
53.805618 194.189346 17.702595 -16.903815 -38.978923 -9.388851 7.991227 -0.056311 -0.143788 16.413884 -0.121547 -0.746237 16.413638 -0.193427 -0.723054 0.373433 7.475989 0.834075 -6.973048 21.593471 11.880163 -0.000000 0.000002 -0.000000 -0.000000 0.000002 -0.000000 -0.000000 0.000002 -0.000000 -37.566085 -4.824867 1.542066 -41.631557 -7.015861 -61.682544 0.000138 -64.989981 0.000148 -119.365615 1.119117 32.541524 0.405904 5.507021 -52.453162 3.387135 5.308626 -65.057463 0.282010 1.797455 -17.832384 -0.000001 0.000003 -0.000003 4.709897 9.560674 3.110565 19.473189 -1.474886 7.636919 -4.536188 -9.613104 1.492975 0.000000 -0.000001 0.000001 -0.212793 3.933755 -36.747073 2.942837 5.079299 -60.152554 0.514033 2.401595 -24.158898 -0.000002 0.000000 0.000001 -0.074367 5.736810 -61.061420 4.055033 5.569512 -72.094819 0.582662 2.548973 -25.748001 -0.000001 -0.000001 -0.000001 -6.565720 4.545125 -72.425352 3.299596 5.267190 -64.107630 0.175325 1.423982 -14.038464 0.000001 0.000004 0.000001 -41.181044 -8.602851 -9.949785 -46.819499 58.243236 100.948167 0.001796 98.439391 -0.001760 -52.463503 -17.216397 -29.273074 3.413078 -7.186241 51.650246 6.296810 -4.359597 110.634687 0.248722 -1.503077 18.790255 0.000001 -0.000000 -0.000000 8.377149 -4.904117 11.022009 21.620199 -18.183908 -18.379230 -0.702954 -49.821206 -32.535200 -0.000001 0.000001 -0.000003 -0.919249 1.680013 12.434619 0.748104 -2.533460 32.898074 0.615851 -2.316437 29.773119 0.000001 0.000000 -0.000003 -3.349023 -2.600429 57.010568 5.440859 -4.590908 99.698133 1.689425 -3.590678 50.382245 -0.000001 0.000001 -0.000001 -3.996430 -3.303918 64.593843 4.058828 -4.618664 82.610510 2.315544 -4.026781 59.787221 0.000000 -0.000001 0.000001 -22.430577 42.943100 28.560706 22.066388 0.652400 -0.665496 4.271552 1.197677 -2.580961 -0.000085 0.000012 -0.000002 -0.000000 -0.000001 0.000000 2.239938 5.290633 -5.420162 31.202343 -0.438693 1.059279 -18.911783 -17.324244 4.275972 -0.020462 -0.000022 0.000005 0.000000 0.000000 0.000000 
